<svg width="22" height="23" fill="none" xmlns="http://www.w3.org/2000/svg"><g filter="url(#filter0_d_5_15)"><path fill-rule="evenodd" clip-rule="evenodd" d="M11 1C5.48 1 1 5.48 1 11s4.48 10 10 10 10-4.48 10-10S16.52 1 11 1zM6.07 17.28c.43-.9 3.05-1.78 4.93-1.78s4.51.88 4.93 1.78A7.893 7.893 0 0111 19c-1.86 0-3.57-.64-4.93-1.72zm11.29-1.45c-1.43-1.74-4.9-2.33-6.36-2.33s-4.93.59-6.36 2.33A7.95 7.95 0 013 11c0-4.41 3.59-8 8-8s8 3.59 8 8c0 1.82-.62 3.49-1.64 4.83zM11 5C9.06 5 7.5 6.56 7.5 8.5S9.06 12 11 12s3.5-1.56 3.5-3.5S12.94 5 11 5zm0 5c-.83 0-1.5-.67-1.5-1.5S10.17 7 11 7s1.5.67 1.5 1.5S11.83 10 11 10z" fill="#fff"/></g><defs><filter id="filter0_d_5_15" x=".3" y=".8" width="21.4" height="21.4" filterUnits="userSpaceOnUse" color-interpolation-filters="sRGB"><feFlood flood-opacity="0" result="BackgroundImageFix"/><feColorMatrix in="SourceAlpha" values="0 0 0 0 0 0 0 0 0 0 0 0 0 0 0 0 0 0 127 0" result="hardAlpha"/><feOffset dy=".5"/><feGaussianBlur stdDeviation=".35"/><feComposite in2="hardAlpha" operator="out"/><feColorMatrix values="0 0 0 0 0 0 0 0 0 0 0 0 0 0 0 0 0 0 0.5 0"/><feBlend in2="BackgroundImageFix" result="effect1_dropShadow_5_15"/><feBlend in="SourceGraphic" in2="effect1_dropShadow_5_15" result="shape"/></filter></defs></svg>